<?xml version="1.0" encoding="utf-8"?>
<!-- Generator: Adobe Illustrator 27.3.0, SVG Export Plug-In . SVG Version: 6.00 Build 0)  -->
<svg version="1.1" id="Layer_1" xmlns="http://www.w3.org/2000/svg" xmlns:xlink="http://www.w3.org/1999/xlink" x="0px" y="0px"
	 viewBox="0 0 500 500" style="enable-background:new 0 0 500 500;" xml:space="preserve">
<style type="text/css">
	.st0{clip-path:url(#SVGID_00000161622952151108526310000012746087045354698647_);}
	.st1{fill:#F8806C;}
	.st2{fill:#FFFFFF;}
</style>
<g>
	<defs>
		<path id="SVGID_1_" d="M250,0C111.9,0,0,111.9,0,250s111.9,250,250,250s250-111.9,250-250S388.1,0,250,0"/>
	</defs>
	<clipPath id="SVGID_00000158014853772031623230000013954032310413961396_">
		<use xlink:href="#SVGID_1_"  style="overflow:visible;"/>
	</clipPath>
	<g style="clip-path:url(#SVGID_00000158014853772031623230000013954032310413961396_);">
		<rect x="-50" y="-50" class="st1" width="600" height="600"/>
	</g>
</g>
<g>
	<g transform="translate(157.101556, 223.499985)">
		<g>
			<path class="st2" d="M112.2-39.8c-14.6,0-26,6-34.2,17.9C69.8-10,65.7,6.5,65.7,27.5c0,43.7,16.6,65.5,49.8,65.5
				c10,0,19.7-1.4,29.1-4.2c9.4-2.8,18.9-6.1,28.4-10.1v51.8c-18.9,8.4-40.4,12.6-64.2,12.6c-34.2,0-60.5-9.9-78.7-29.8
				C11.9,93.4,2.7,64.7,2.7,27.2C2.7,3.7,7.1-16.9,16-34.7c8.9-17.8,21.6-31.5,38.2-41.1c16.6-9.6,36.1-14.4,58.6-14.4
				c24.5,0,48,5.3,70.3,16l-18.8,48.2c-8.4-3.9-16.7-7.2-25.1-9.9C130.8-38.5,121.8-39.8,112.2-39.8z"/>
		</g>
	</g>
</g>
</svg>
