<svg xmlns="http://www.w3.org/2000/svg" xmlns:xlink="http://www.w3.org/1999/xlink" width="320" zoomAndPan="magnify" viewBox="0 0 240 149.999998" height="200" preserveAspectRatio="xMidYMid meet" version="1.0"><defs><g/><clipPath id="a86573a911"><path d="M 8.949219 23.300781 L 112.34375 23.300781 L 112.34375 126.699219 L 8.949219 126.699219 Z M 8.949219 23.300781 " clip-rule="nonzero"/></clipPath><clipPath id="2c44ce53b7"><path d="M 60.648438 23.300781 C 32.097656 23.300781 8.949219 46.449219 8.949219 75 C 8.949219 103.550781 32.097656 126.699219 60.648438 126.699219 C 89.199219 126.699219 112.34375 103.550781 112.34375 75 C 112.34375 46.449219 89.199219 23.300781 60.648438 23.300781 " clip-rule="nonzero"/></clipPath></defs><g clip-path="url(#a86573a911)"><g clip-path="url(#2c44ce53b7)"><path fill="#f8806c" d="M 8.949219 23.300781 L 112.34375 23.300781 L 112.34375 126.699219 L 8.949219 126.699219 Z M 8.949219 23.300781 " fill-opacity="1" fill-rule="nonzero"/></g></g><g fill="#ffffff" fill-opacity="1"><g transform="translate(49.462485, 87.374997)"><g><path d="M 13.609375 -19.5 C 12.035156 -19.5 10.800781 -18.851562 9.90625 -17.5625 C 9.019531 -16.269531 8.578125 -14.484375 8.578125 -12.203125 C 8.578125 -7.460938 10.378906 -5.09375 13.984375 -5.09375 C 15.078125 -5.09375 16.132812 -5.242188 17.15625 -5.546875 C 18.175781 -5.859375 19.203125 -6.222656 20.234375 -6.640625 L 20.234375 -1.03125 C 18.179688 -0.113281 15.859375 0.34375 13.265625 0.34375 C 9.546875 0.34375 6.695312 -0.734375 4.71875 -2.890625 C 2.738281 -5.046875 1.75 -8.160156 1.75 -12.234375 C 1.75 -14.785156 2.226562 -17.023438 3.1875 -18.953125 C 4.144531 -20.878906 5.523438 -22.359375 7.328125 -23.390625 C 9.128906 -24.429688 11.25 -24.953125 13.6875 -24.953125 C 16.34375 -24.953125 18.882812 -24.375 21.3125 -23.21875 L 19.265625 -17.984375 C 18.359375 -18.410156 17.453125 -18.769531 16.546875 -19.0625 C 15.640625 -19.351562 14.660156 -19.5 13.609375 -19.5 Z M 13.609375 -19.5 "/></g></g></g><g fill="#f8806c" fill-opacity="1"><g transform="translate(141.788133, 69.924159)"><g><path d="M 11.921875 -17.078125 C 10.535156 -17.078125 9.453125 -16.507812 8.671875 -15.375 C 7.898438 -14.238281 7.515625 -12.675781 7.515625 -10.6875 C 7.515625 -6.539062 9.09375 -4.46875 12.25 -4.46875 C 13.195312 -4.46875 14.117188 -4.597656 15.015625 -4.859375 C 15.910156 -5.128906 16.8125 -5.453125 17.71875 -5.828125 L 17.71875 -0.90625 C 15.914062 -0.101562 13.878906 0.296875 11.609375 0.296875 C 8.359375 0.296875 5.863281 -0.644531 4.125 -2.53125 C 2.394531 -4.414062 1.53125 -7.144531 1.53125 -10.71875 C 1.53125 -12.945312 1.945312 -14.90625 2.78125 -16.59375 C 3.625 -18.28125 4.832031 -19.578125 6.40625 -20.484375 C 7.988281 -21.398438 9.847656 -21.859375 11.984375 -21.859375 C 14.316406 -21.859375 16.539062 -21.351562 18.65625 -20.34375 L 16.875 -15.75 C 16.082031 -16.125 15.285156 -16.4375 14.484375 -16.6875 C 13.691406 -16.945312 12.835938 -17.078125 11.921875 -17.078125 Z M 11.921875 -17.078125 "/></g></g></g><g fill="#f8806c" fill-opacity="1"><g transform="translate(161.379635, 69.924159)"><g><path d="M 7.75 0 L 1.984375 0 L 1.984375 -22.9375 L 7.75 -22.9375 Z M 7.75 0 "/></g></g></g><g fill="#f8806c" fill-opacity="1"><g transform="translate(171.138532, 69.924159)"><g><path d="M 7.78125 0 L 2.015625 0 L 2.015625 -16.703125 L 7.78125 -16.703125 Z M 1.875 -20.859375 C 1.875 -21.722656 2.113281 -22.363281 2.59375 -22.78125 C 3.070312 -23.207031 3.847656 -23.421875 4.921875 -23.421875 C 5.992188 -23.421875 6.773438 -23.203125 7.265625 -22.765625 C 7.753906 -22.335938 8 -21.703125 8 -20.859375 C 8 -19.171875 6.972656 -18.328125 4.921875 -18.328125 C 2.890625 -18.328125 1.875 -19.171875 1.875 -20.859375 Z M 1.875 -20.859375 "/></g></g></g><g fill="#f8806c" fill-opacity="1"><g transform="translate(180.956395, 69.924159)"><g><path d="M 12.1875 -12.375 L 8.640625 -12.375 L 8.640625 0 L 2.875 0 L 2.875 -12.375 L 0.65625 -12.375 L 0.65625 -15.21875 L 3 -16.625 L 3 -16.90625 C 3 -19.101562 3.445312 -20.679688 4.34375 -21.640625 C 5.238281 -22.609375 6.679688 -23.09375 8.671875 -23.09375 C 9.429688 -23.09375 10.148438 -23.035156 10.828125 -22.921875 C 11.515625 -22.804688 12.3125 -22.597656 13.21875 -22.296875 L 11.984375 -18.578125 C 11.273438 -18.773438 10.582031 -18.875 9.90625 -18.875 C 9.457031 -18.875 9.132812 -18.738281 8.9375 -18.46875 C 8.738281 -18.195312 8.640625 -17.753906 8.640625 -17.140625 L 8.640625 -16.703125 L 12.1875 -16.703125 Z M 12.1875 -12.375 "/></g></g></g><g fill="#f8806c" fill-opacity="1"><g transform="translate(193.427735, 69.924159)"><g><path d="M 12.1875 -12.375 L 8.640625 -12.375 L 8.640625 0 L 2.875 0 L 2.875 -12.375 L 0.65625 -12.375 L 0.65625 -15.21875 L 3 -16.625 L 3 -16.90625 C 3 -19.101562 3.445312 -20.679688 4.34375 -21.640625 C 5.238281 -22.609375 6.679688 -23.09375 8.671875 -23.09375 C 9.429688 -23.09375 10.148438 -23.035156 10.828125 -22.921875 C 11.515625 -22.804688 12.3125 -22.597656 13.21875 -22.296875 L 11.984375 -18.578125 C 11.273438 -18.773438 10.582031 -18.875 9.90625 -18.875 C 9.457031 -18.875 9.132812 -18.738281 8.9375 -18.46875 C 8.738281 -18.195312 8.640625 -17.753906 8.640625 -17.140625 L 8.640625 -16.703125 L 12.1875 -16.703125 Z M 12.1875 -12.375 "/></g></g></g><g fill="#f8806c" fill-opacity="1"><g transform="translate(205.897036, 69.924159)"><g/></g></g><g fill="#f8806c" fill-opacity="1"><g transform="translate(128.683102, 103.279672)"><g><path d="M 11.71875 0 L 7.3125 -15.515625 L 7.171875 -15.515625 C 7.378906 -12.878906 7.484375 -10.828125 7.484375 -9.359375 L 7.484375 0 L 2.328125 0 L 2.328125 -21.546875 L 10.078125 -21.546875 L 14.578125 -6.25 L 14.703125 -6.25 L 19.109375 -21.546875 L 26.875 -21.546875 L 26.875 0 L 21.515625 0 L 21.515625 -9.453125 C 21.515625 -9.941406 21.519531 -10.484375 21.53125 -11.078125 C 21.550781 -11.679688 21.617188 -13.148438 21.734375 -15.484375 L 21.609375 -15.484375 L 17.265625 0 Z M 11.71875 0 "/></g></g></g><g fill="#f8806c" fill-opacity="1"><g transform="translate(157.871345, 103.279672)"><g><path d="M 12.875 0 L 11.78125 -2.21875 L 11.65625 -2.21875 C 10.882812 -1.25 10.09375 -0.585938 9.28125 -0.234375 C 8.476562 0.117188 7.4375 0.296875 6.15625 0.296875 C 4.582031 0.296875 3.34375 -0.171875 2.4375 -1.109375 C 1.539062 -2.054688 1.09375 -3.382812 1.09375 -5.09375 C 1.09375 -6.875 1.710938 -8.195312 2.953125 -9.0625 C 4.191406 -9.9375 5.984375 -10.429688 8.328125 -10.546875 L 11.109375 -10.625 L 11.109375 -10.859375 C 11.109375 -12.234375 10.429688 -12.921875 9.078125 -12.921875 C 7.859375 -12.921875 6.3125 -12.507812 4.4375 -11.6875 L 2.765625 -15.484375 C 4.710938 -16.492188 7.171875 -17 10.140625 -17 C 12.285156 -17 13.941406 -16.46875 15.109375 -15.40625 C 16.285156 -14.34375 16.875 -12.859375 16.875 -10.953125 L 16.875 0 Z M 8.609375 -3.78125 C 9.304688 -3.78125 9.898438 -4 10.390625 -4.4375 C 10.890625 -4.875 11.140625 -5.445312 11.140625 -6.15625 L 11.140625 -7.453125 L 9.8125 -7.40625 C 7.914062 -7.332031 6.96875 -6.632812 6.96875 -5.3125 C 6.96875 -4.289062 7.515625 -3.78125 8.609375 -3.78125 Z M 8.609375 -3.78125 "/></g></g></g><g fill="#f8806c" fill-opacity="1"><g transform="translate(176.681545, 103.279672)"><g><path d="M 12.078125 -17 C 12.578125 -17 13.050781 -16.957031 13.5 -16.875 L 13.828125 -16.8125 L 13.3125 -11.375 C 12.84375 -11.5 12.1875 -11.5625 11.34375 -11.5625 C 10.09375 -11.5625 9.179688 -11.269531 8.609375 -10.6875 C 8.035156 -10.113281 7.75 -9.285156 7.75 -8.203125 L 7.75 0 L 1.984375 0 L 1.984375 -16.703125 L 6.28125 -16.703125 L 7.171875 -14.03125 L 7.453125 -14.03125 C 7.941406 -14.914062 8.613281 -15.628906 9.46875 -16.171875 C 10.332031 -16.722656 11.203125 -17 12.078125 -17 Z M 12.078125 -17 "/></g></g></g><g fill="#f8806c" fill-opacity="1"><g transform="translate(190.848158, 103.279672)"><g><path d="M 7.578125 -9.390625 C 8.273438 -10.503906 8.867188 -11.367188 9.359375 -11.984375 L 13.109375 -16.703125 L 19.53125 -16.703125 L 13.734375 -9.59375 L 19.90625 0 L 13.3125 0 L 9.65625 -5.984375 L 7.78125 -4.546875 L 7.78125 0 L 1.984375 0 L 1.984375 -22.9375 L 7.78125 -22.9375 L 7.78125 -13.921875 C 7.78125 -12.367188 7.671875 -10.859375 7.453125 -9.390625 Z M 7.578125 -9.390625 "/></g></g></g><g fill="#f8806c" fill-opacity="1"><g transform="translate(210.749232, 103.279672)"><g><path d="M 14.890625 -5.125 C 14.890625 -3.34375 14.28125 -1.992188 13.0625 -1.078125 C 11.84375 -0.160156 10.09375 0.296875 7.8125 0.296875 C 6.570312 0.296875 5.492188 0.226562 4.578125 0.09375 C 3.671875 -0.0390625 2.738281 -0.285156 1.78125 -0.640625 L 1.78125 -5.25 C 2.675781 -4.851562 3.65625 -4.523438 4.71875 -4.265625 C 5.789062 -4.015625 6.742188 -3.890625 7.578125 -3.890625 C 8.828125 -3.890625 9.453125 -4.175781 9.453125 -4.75 C 9.453125 -5.039062 9.273438 -5.300781 8.921875 -5.53125 C 8.578125 -5.757812 7.5625 -6.210938 5.875 -6.890625 C 4.34375 -7.515625 3.269531 -8.226562 2.65625 -9.03125 C 2.050781 -9.832031 1.75 -10.847656 1.75 -12.078125 C 1.75 -13.628906 2.347656 -14.835938 3.546875 -15.703125 C 4.742188 -16.566406 6.441406 -17 8.640625 -17 C 9.734375 -17 10.765625 -16.875 11.734375 -16.625 C 12.703125 -16.382812 13.707031 -16.035156 14.75 -15.578125 L 13.1875 -11.859375 C 12.425781 -12.203125 11.617188 -12.492188 10.765625 -12.734375 C 9.910156 -12.984375 9.210938 -13.109375 8.671875 -13.109375 C 7.722656 -13.109375 7.25 -12.875 7.25 -12.40625 C 7.25 -12.125 7.410156 -11.878906 7.734375 -11.671875 C 8.066406 -11.472656 9.019531 -11.066406 10.59375 -10.453125 C 11.769531 -9.972656 12.644531 -9.5 13.21875 -9.03125 C 13.789062 -8.570312 14.210938 -8.03125 14.484375 -7.40625 C 14.753906 -6.78125 14.890625 -6.019531 14.890625 -5.125 Z M 14.890625 -5.125 "/></g></g></g></svg>